<?xml version="1.0" encoding="UTF-8" standalone="no"?>
<svg width="290px" height="18px" viewBox="0 0 290 18" version="1.1" xmlns="http://www.w3.org/2000/svg" xmlns:xlink="http://www.w3.org/1999/xlink" xmlns:sketch="http://www.bohemiancoding.com/sketch/ns">
    <!-- Generator: Sketch 3.1.1 (8761) - http://www.bohemiancoding.com/sketch -->
    <title>Logo / Net-A-Porter</title>
    <desc>Created with Sketch.</desc>
    <defs></defs>
    <g id="Styleguide" stroke="none" stroke-width="1" fill="none" fill-rule="evenodd" sketch:type="MSPage">
        <g id="Logos" sketch:type="MSArtboardGroup" transform="translate(-60.000000, -79.000000)" fill="#000000">
            <g id="Logo-/-Net-A-Porter" sketch:type="MSLayerGroup" transform="translate(60.000000, 79.000000)">
                <path d="M15.4204489,16.8694839 L13.3908807,16.8694839 L2.36947159,4.15732258 L2.36947159,16.8694839 L0.145047348,16.8694839 L0.145047348,0.355354839 L2.03011553,0.355354839 L13.1976667,13.141 L13.1976667,0.355354839 L15.4204489,0.355354839 L15.4204489,16.8694839 L15.4204489,16.8694839 Z" id="Shape" sketch:type="MSShapeGroup"></path>
                <path d="M39.8896629,2.48693548 L32.9038542,2.48693548 L32.9038542,7.47396774 L39.6471875,7.47396774 L39.6471875,9.60554839 L32.9038542,9.60554839 L32.9038542,14.7384516 L40.1053182,14.7384516 L40.1053182,16.8694839 L30.5354773,16.8694839 L30.5354773,0.355354839 L39.8896629,0.355354839 L39.8896629,2.48693548 L39.8896629,2.48693548 Z" id="Shape" sketch:type="MSShapeGroup"></path>
                <path d="M66.4377064,2.48693548 L60.7348826,2.48693548 L60.7348826,16.8694839 L58.3665057,16.8694839 L58.3665057,2.48693548 L52.6620398,2.48693548 L52.6620398,0.354806452 L66.4382538,0.354806452 L66.4382538,2.48693548 L66.4377064,2.48693548 Z" id="Shape" sketch:type="MSShapeGroup"></path>
                <path d="M86.3305398,10.1215806 L76.5368333,10.1215806 L76.5368333,7.98506452 L86.3305398,7.98506452 L86.3305398,10.1215806 L86.3305398,10.1215806 Z" id="Shape" sketch:type="MSShapeGroup"></path>
                <path d="M112.588489,16.8694839 L110.17085,16.8694839 L107.971057,12.002 L100.962807,12.002 L98.8845246,16.8694839 L96.4690758,16.8694839 L103.549576,0.259387097 L105.216799,0.259387097 L112.588489,16.8694839 L112.588489,16.8694839 Z M101.881258,9.87096774 L107.004439,9.87096774 L104.346515,3.89080645 L101.881258,9.87096774 L101.881258,9.87096774 Z" id="Shape" sketch:type="MSShapeGroup"></path>
                <path d="M133.147992,10.1215806 L123.352644,10.1215806 L123.352644,7.98396774 L133.147992,7.98396774 L133.147992,10.1215806 L133.147992,10.1215806 Z" id="Shape" sketch:type="MSShapeGroup"></path>
                <path d="M152.298074,0.354806452 C155.899627,0.354806452 157.542767,2.48693548 157.542767,5.10054839 C157.542767,7.69167742 155.801652,9.72564516 151.983348,9.72564516 L149.518638,9.72564516 L149.518638,16.8689355 L147.150261,16.8689355 L147.150261,0.354806452 L152.298074,0.354806452 L152.298074,0.354806452 Z M149.518091,7.59516129 L152.200646,7.59516129 C153.96475,7.59516129 155.101593,6.65029032 155.101593,5.00512903 C155.101593,3.79374194 154.448059,2.48693548 152.297527,2.48693548 L149.517544,2.48693548 L149.517544,7.59516129 L149.518091,7.59516129 Z" id="Shape" sketch:type="MSShapeGroup"></path>
                <path d="M177.763462,0.136548387 C183.201369,0.136548387 186.632697,4.01090323 186.632697,8.61241935 C186.632697,13.0680645 183.29825,17.0860968 177.71639,17.0860968 C172.326102,17.0860968 168.917216,13.0927419 168.917216,8.61241935 C168.917216,4.03558065 172.422436,0.136548387 177.763462,0.136548387 L177.763462,0.136548387 Z M177.763462,14.9084516 C181.461896,14.9084516 184.194259,12.2208065 184.194259,8.61296774 C184.194259,4.97990323 181.461896,2.3163871 177.763462,2.3163871 C174.091848,2.3163871 171.359485,4.97990323 171.359485,8.61296774 C171.359485,12.2202581 174.091848,14.9084516 177.763462,14.9084516 L177.763462,14.9084516 Z" id="Shape" sketch:type="MSShapeGroup"></path>
                <path d="M204.738438,0.354806452 C208.072884,0.354806452 210.151167,2.12225806 210.151167,4.97935484 C210.151167,6.89322581 209.161013,8.32232258 207.396362,9.02370968 C208.893907,10.0173871 209.813453,11.5419032 211.070712,13.6016452 C211.771866,14.7384516 212.182377,15.2956129 213.317578,16.8694839 L210.489975,16.8694839 L208.31536,13.4788065 C206.13965,10.0892258 205.148949,9.70206452 203.940951,9.70206452 L202.949703,9.70206452 L202.949703,16.8689355 L200.580778,16.8689355 L200.580778,0.354806452 L204.738438,0.354806452 L204.738438,0.354806452 Z M202.949703,7.57048387 L204.472973,7.57048387 C207.008839,7.57048387 207.733528,6.26367742 207.711087,4.8833871 C207.685362,3.33364516 206.766911,2.38932258 204.472973,2.38932258 L202.949703,2.38932258 L202.949703,7.57048387 L202.949703,7.57048387 Z" id="Shape" sketch:type="MSShapeGroup"></path>
                <path d="M237.388869,2.48693548 L231.684403,2.48693548 L231.684403,16.8694839 L229.316574,16.8694839 L229.316574,2.48693548 L223.612108,2.48693548 L223.612108,0.354806452 L237.388869,0.354806452 L237.388869,2.48693548 L237.388869,2.48693548 Z" id="Shape" sketch:type="MSShapeGroup"></path>
                <path d="M260.611771,2.48693548 L253.627604,2.48693548 L253.627604,7.47341935 L260.369843,7.47341935 L260.369843,9.60554839 L253.627604,9.60554839 L253.627604,14.7384516 L260.829616,14.7384516 L260.829616,16.8694839 L251.25868,16.8694839 L251.25868,0.355354839 L260.611771,0.355354839 L260.611771,2.48693548 L260.611771,2.48693548 Z" id="Shape" sketch:type="MSShapeGroup"></path>
                <path d="M280.586706,0.354806452 C283.921153,0.354806452 285.999436,2.12225806 285.999436,4.97935484 C285.999436,6.89322581 285.008188,8.32232258 283.244631,9.02370968 C284.743271,10.0173871 285.660627,11.5419032 286.918981,13.6016452 C287.617945,14.7384516 288.030646,15.2956129 289.165847,16.8694839 L286.338244,16.8694839 L284.163629,13.4788065 C281.986824,10.0892258 280.997218,9.70206452 279.78922,9.70206452 L278.797972,9.70206452 L278.797972,16.8689355 L276.427953,16.8689355 L276.427953,0.354806452 L280.586706,0.354806452 L280.586706,0.354806452 Z M278.797972,7.57048387 L280.317958,7.57048387 C282.858203,7.57048387 283.582892,6.26367742 283.559356,4.8833871 C283.533631,3.33364516 282.61518,2.38932258 280.317958,2.38932258 L278.797972,2.38932258 L278.797972,7.57048387 L278.797972,7.57048387 Z" id="Shape" sketch:type="MSShapeGroup"></path>
            </g>
        </g>
    </g>
</svg>