<svg xmlns="http://www.w3.org/2000/svg" xmlns:xlink="http://www.w3.org/1999/xlink" version="1.1" id="Layer_1" x="0px" y="0px" width="80px" height="80px" viewBox="0 0 80 80" enable-background="new 0 0 80 80" xml:space="preserve">
  <path fill="#CCCBCB" d="M74.597 48.391c0 0-1.773 12.504-12.14 20.99 -5.524 4.523-13.426 7.99-24.668 7.99 -10.336 0-31.654-8.795-31.654-38.195 0-10.697 9.891-31.222 31.654-31.222 20.334 0 31.873 15.295 31.873 29.802 -0.023 6.384 1.186 9.259 5.312 9.185 5.148 0 4.831-3.637 4.831-8.51 -0.067-6.994-3.5-19.75-13.859-28.671 -7.516-5.829-15.558-9.954-28.183-9.49 -10.041 0.787-17.959 4.12-25.75 11.62C5.039 18.825 0.764 27.932 0.285 38.557c0 13.333 4.688 21.875 10.454 28.404 6.899 7.387 16.191 12.055 26.899 12.805 11.417 0 19.881-4.01 25.824-9.34C71.278 63.418 74.511 53.836 74.597 48.391z">
    <animateTransform attributeType="xml" attributeName="transform" type="rotate" from="0 40 40" to="360 40 40" dur="0.8s" repeatCount="indefinite"/>
  </path>
</svg>